# xmcd
#
# Track frame offsets:
# 150
# 10554
# 25920
# 41334
# 58912
# 76133
# 89893
# 114524
# 127818
# 140647
# 156517
# 167371
# 187913
# 203499
# 216179
# 227879
# 242341
# 254686
# 274020
# 291910
# 314174
#
# Disc length: 4355 seconds
#
#
# Revision: 0
# Processed by: cddbd v1.4PL0 Copyright (c) Steve Scherf et al.
# Submitted via: FreeRIP 2.51 
#
DISCID=28110115
DTITLE=Jingle Blues
DYEAR=1900
DGENRE=Blues
TTITLE0=Boogie Woogie Santa Claus
TTITLE1=Santa's Messin' with the Kids
TTITLE2=Santa Claus, Santa Claus
TTITLE3=Santa Claus' wants some Lovin'
TTITLE4=Santa
TTITLE5=Empty Stocking Blues
TTITLE6=Santa don't let me down
TTITLE7=Let's make Christmas Merry, Baby
TTITLE8=Christmas Celebration
TTITLE9=Blues for Christmas
TTITLE10=I want to Spend Christmas with You
TTITLE11=Sam's Christmas Blues
TTITLE12=At the Christmas Ball
TTITLE13=How I hate to see Christmas come Around
TTITLE14=Sonny Boy's Christmas Blues
TTITLE15=Jump Swing Christmas
TTITLE16=Jingle Bells
TTITLE17=Rudolph the Red Nosed Reindeer
TTITLE18=God Rest Ye Merry Gentlemen
TTITLE19=Up on the housetop
TTITLE20=O Christmas Tree
EXTD=
EXTT0=
EXTT1=
EXTT2=
EXTT3=
EXTT4=
EXTT5=
EXTT6=
EXTT7=
EXTT8=
EXTT9=
EXTT10=
EXTT11=
EXTT12=
EXTT13=
EXTT14=
EXTT15=
EXTT16=
EXTT17=
EXTT18=
EXTT19=
EXTT20=
PLAYORDER=
